<svg width="24" height="24" viewBox="0 0 24 24" fill="none" xmlns="http://www.w3.org/2000/svg">
<path d="M1.3335 2.6665H22.6668V17.3332H1.3335V2.6665Z" stroke="#737373" stroke-width="2" stroke-miterlimit="10" stroke-linecap="round" stroke-linejoin="round"/>
<path d="M5.3335 7.33313V13.9998C5.3335 13.9998 9.3335 12.6665 12.0002 13.9998V7.33313C12.0002 7.33313 9.3335 4.66647 5.3335 7.33313ZM12.0002 7.33313V13.9998C12.0002 13.9998 16.0002 12.6665 18.6668 13.9998V7.33313C18.6668 7.33313 16.0002 4.66647 12.0002 7.33313Z" fill="#A6A6A6"/>
<path d="M12.0002 13.9998C9.3335 12.6665 5.3335 13.9998 5.3335 13.9998V7.33313C9.3335 4.66647 12.0002 7.33313 12.0002 7.33313M12.0002 13.9998V7.33313M12.0002 13.9998C12.0002 13.9998 16.0002 12.6665 18.6668 13.9998V7.33313C18.6668 7.33313 16.0002 4.66647 12.0002 7.33313" stroke="#737373" stroke-miterlimit="10" stroke-linecap="round" stroke-linejoin="round"/>
<path d="M11.3335 18.6665L7.3335 22.6665H16.6668L12.6668 18.6665H11.3335Z" fill="#737373" stroke="#737373" stroke-width="2" stroke-miterlimit="10" stroke-linecap="round" stroke-linejoin="round"/>
</svg>
