<svg width="30" height="31" viewBox="0 0 30 31" fill="none" xmlns="http://www.w3.org/2000/svg">
<g opacity="0.5" clip-path="url(#clip0_69_4116)">
<g clip-path="url(#clip1_69_4116)">
<g clip-path="url(#clip2_69_4116)">
<path d="M29.9962 14.8479V16.6042C29.9788 16.6975 29.9595 16.7902 29.9447 16.8847C29.8315 17.6252 29.7827 18.3824 29.598 19.1049C28.2084 24.547 24.8269 28.1762 19.527 29.9975C18.6694 30.2928 17.7578 30.4324 16.8494 30.6498V18.8424H20.436L20.9777 14.6607H16.8429C16.8429 13.6197 16.8275 12.6155 16.8532 11.6118C16.8661 11.3198 16.9398 11.0336 17.0694 10.7716C17.2015 10.524 17.4015 10.3193 17.646 10.1816C17.8905 10.0438 18.1691 9.97863 18.4493 9.9938C19.2278 9.95455 20.0095 9.96356 20.7899 9.95198C20.8922 9.95198 20.9951 9.94169 21.1154 9.93461C21.1154 8.73154 21.1187 7.56129 21.1071 6.39168C21.0923 6.34506 21.0658 6.30293 21.0304 6.26919C20.995 6.23546 20.9517 6.2112 20.9044 6.19867C19.7258 6.14656 18.5459 6.05649 17.3659 6.08223C16.232 6.09243 15.1375 6.49969 14.2727 7.23318C13.7359 7.69806 13.3041 8.27184 13.0061 8.91641C12.708 9.56097 12.5505 10.2616 12.544 10.9717C12.4849 12.0815 12.5112 13.1958 12.5003 14.3081C12.5003 14.4213 12.5003 14.5346 12.5003 14.6812H8.91365V18.8695H12.4842V30.4588C12.4615 30.4672 12.4376 30.4724 12.4134 30.4742C12.3747 30.4704 12.3363 30.4644 12.2983 30.4562C9.93864 30.0238 7.71839 29.0275 5.8268 27.5521C3.56197 25.8246 1.85047 23.4738 0.902008 20.7879C-0.367836 17.3242 -0.29232 13.5101 1.11366 10.0993C2.20229 7.42197 4.04029 5.1156 6.40716 3.45692C8.77404 1.79825 11.5692 0.85773 14.4574 0.748209C17.1137 0.632309 19.7511 1.24642 22.083 2.52386C24.0943 3.58357 25.8336 5.09339 27.1656 6.93566C28.4975 8.77793 29.3861 10.9029 29.7621 13.1449C29.8702 13.7091 29.9203 14.2798 29.9962 14.8479Z" fill="white"/>
</g>
</g>
</g>
<defs>
<clipPath id="clip0_69_4116">
<rect width="30" height="29.91" fill="white" transform="translate(0 0.740234)"/>
</clipPath>
<clipPath id="clip1_69_4116">
<rect width="30" height="29.91" fill="white" transform="translate(0 0.740234)"/>
</clipPath>
<clipPath id="clip2_69_4116">
<rect width="29.9936" height="29.91" fill="white" transform="translate(0.00318909 0.740234)"/>
</clipPath>
</defs>
</svg>
