<svg width="78" height="37" viewBox="0 0 78 37" fill="none" xmlns="http://www.w3.org/2000/svg">
<path d="M65.7966 29.701C65.7966 30.8514 65.7966 31.9159 65.7966 32.9828C65.7966 34.9356 64.4769 36.2321 62.4897 36.2321C54.0025 36.2321 45.5129 36.2321 37.0257 36.2321C35.1212 36.2321 33.7829 34.9426 33.7829 33.0895C33.7781 27.5603 33.7781 22.0334 33.7829 16.5042C33.7829 14.6743 35.1117 13.3848 36.9854 13.3732C37.8121 13.3685 38.6388 13.3732 39.4986 13.3732V15.3098C38.6862 15.3098 37.8974 15.3075 37.1086 15.3098C36.2203 15.3121 35.7607 15.7505 35.7607 16.6063C35.7607 22.0659 35.7607 27.5255 35.7607 32.9851C35.7607 33.8618 36.1943 34.2793 37.0944 34.2793C45.5461 34.2793 54.0002 34.2793 62.4521 34.2793C63.385 34.2793 63.7994 33.8688 63.7994 32.9503C63.7994 27.5093 63.7994 22.0659 63.7994 16.6248C63.7994 15.6878 63.4139 15.3121 62.4474 15.3121C57.2051 15.3121 51.9654 15.3121 46.7233 15.3121C46.5125 15.3121 46.3017 15.3121 46.0507 15.3121V13.3755H46.6026C51.9322 13.3755 57.2619 13.3755 62.5916 13.3755C64.5034 13.3755 65.7942 14.6581 65.7966 16.546C65.7966 17.5804 65.7966 18.6171 65.7966 19.6979C67.3906 18.7052 68.9445 17.7381 70.4985 16.771C72.0454 15.8084 73.5993 14.8552 75.1415 13.8834C75.7048 13.5286 76.2781 13.4149 76.885 13.7373C77.4912 14.0597 77.6973 14.5908 77.6973 15.2518C77.6902 21.6275 77.6902 28.001 77.6973 34.3767C77.6973 35.0423 77.4795 35.5735 76.8703 35.8796C76.2922 36.1695 75.7242 36.0976 75.1721 35.7427C72.2396 33.8572 69.3001 31.9832 66.3628 30.1046C66.2016 30.0002 66.0503 29.8842 65.7966 29.7056V29.701ZM75.6695 33.6902V15.9221C75.5747 15.9569 75.5229 15.9661 75.4823 15.9917C72.9077 17.5897 70.3278 19.183 67.7649 20.7972C67.6207 20.8877 67.5236 21.159 67.5212 21.3469C67.5042 23.592 67.5189 25.8371 67.5018 28.0845C67.5018 28.4022 67.6113 28.5784 67.8738 28.7454C70.3137 30.2947 72.7464 31.8556 75.1815 33.4119C75.3216 33.5023 75.4705 33.5789 75.6695 33.6925V33.6902Z" fill="black"/>
<path d="M31.2675 20.9383V22.875C31.0544 22.875 30.8649 22.875 30.6777 22.875C25.3836 22.875 20.0894 22.875 14.7953 22.875C12.8008 22.875 11.5098 21.6156 11.5074 19.6767C11.5074 18.6955 11.5074 17.7122 11.5074 16.6314C11.126 16.8633 10.8181 17.0465 10.5125 17.2367C7.86193 18.8811 5.21127 20.5255 2.56537 22.1768C2.06083 22.4923 1.53971 22.6499 0.966463 22.4041C0.319795 22.1281 -0.00235579 21.6318 1.29676e-05 20.936C0.00238172 19.7276 1.29676e-05 18.517 1.29676e-05 17.3086C1.29676e-05 12.1088 1.29676e-05 6.9089 1.29676e-05 1.70906C1.29676e-05 0.533179 0.862242 -0.204356 1.93291 0.064682C2.19822 0.131942 2.44694 0.287334 2.68144 0.435768C5.50262 2.23554 8.31905 4.04227 11.1379 5.84668C11.2232 5.90236 11.3155 5.94639 11.5074 6.05311V5.40138C11.5074 4.71023 11.5074 4.01908 11.5074 3.32793C11.5074 1.29159 12.8197 0.00438089 14.916 0.00206159C17.8983 -0.00257699 20.8806 0.00206159 23.8628 0.00206159C29.2446 0.00206159 34.6264 0.00206159 40.0083 0.00206159C42.2728 0.00206159 43.5566 1.25448 43.5566 3.46477C43.5566 8.82002 43.5566 14.1753 43.5566 19.5305C43.5566 21.3419 42.4386 22.7265 40.8113 22.8471C39.8306 22.919 38.8381 22.861 37.8101 22.861V20.9429C38.5633 20.9429 39.3189 20.9429 40.0722 20.9429C41.169 20.9407 41.5622 20.551 41.5622 19.4656C41.5622 14.1266 41.5622 8.78988 41.5622 3.45085C41.5622 2.36079 41.1358 1.94099 40.0343 1.94099C31.7058 1.94099 23.3772 1.94099 15.0464 1.94099C13.9259 1.94099 13.5019 2.34918 13.5019 3.42766C13.5019 8.80148 13.5019 14.173 13.5019 19.5468C13.5019 20.5788 13.8738 20.9453 14.9326 20.9453C20.1391 20.9453 25.3433 20.9453 30.5498 20.9453H31.2652L31.2675 20.9383ZM1.99687 20.1706C2.13189 20.108 2.19585 20.0872 2.25506 20.05C4.80148 18.4683 7.35024 16.8935 9.88247 15.2909C10.0554 15.1819 10.188 14.8803 10.1904 14.6669C10.2117 12.4567 10.1951 10.2441 10.2117 8.0338C10.2141 7.69982 10.1099 7.50499 9.82326 7.32405C7.33606 5.74927 4.8607 4.15592 2.38061 2.57184C2.27165 2.50226 2.14847 2.45587 1.99924 2.38166V20.1706H1.99687Z" fill="black"/>
<path d="M17.7301 17.8877C17.7301 17.8762 17.7275 17.8667 17.7275 17.8578C17.7301 17.4936 17.7231 17.127 17.7371 16.7628C17.7731 15.8978 18.0004 15.0816 18.4244 14.3184C19.1232 13.0587 20.1581 12.1731 21.5247 11.6557C21.5652 11.6397 21.598 11.6417 21.6385 11.6602C22.3518 11.9919 23.1027 12.1312 23.8893 12.0898C24.4882 12.0572 25.059 11.9154 25.5989 11.6627C25.6418 11.6417 25.6774 11.6417 25.7224 11.6581C26.9611 12.1197 27.9275 12.9084 28.6339 14.0052C29.1028 14.736 29.3821 15.5362 29.4745 16.3963C29.5029 16.654 29.5055 16.9137 29.5125 17.171C29.5194 17.3912 29.5125 17.6115 29.5125 17.8323C29.5125 17.8507 29.5125 17.8667 29.5125 17.8877H17.7301ZM19.8149 7.58737H19.8124C19.7815 5.577 21.4043 3.88119 23.4937 3.81174C25.604 3.74234 27.3286 5.34921 27.4281 7.35562C27.532 9.44546 25.8761 11.1916 23.7659 11.268C23.717 11.2698 23.6683 11.2707 23.6199 11.2707C21.5112 11.2708 19.8354 9.60544 19.8149 7.58737Z" fill="#E6790C"/>
<path d="M46.7125 31.9053C46.7125 31.8938 46.71 31.8843 46.71 31.8753C46.7125 31.5112 46.7056 31.1446 46.7195 30.7804C46.7555 29.9154 46.9828 29.0992 47.4069 28.336C48.1056 27.0763 49.1405 26.1907 50.5071 25.6732C50.5476 25.6573 50.5804 25.6593 50.621 25.6782C51.3342 26.0094 52.0851 26.1488 52.8717 26.1073C53.4706 26.0748 54.0414 25.933 54.5813 25.6803C54.6243 25.6593 54.6598 25.6593 54.7048 25.6757C55.9435 26.1372 56.9099 26.926 57.6157 28.0228C58.0848 28.7536 58.3645 29.5537 58.4569 30.4138C58.4854 30.6715 58.4874 30.9313 58.4944 31.1886C58.5018 31.4088 58.4944 31.6291 58.4944 31.8499C58.4944 31.8683 58.4944 31.8843 58.4944 31.9053H46.7125ZM48.7974 21.6049H48.7948C48.7639 19.5946 50.3862 17.8988 52.4755 17.8293C54.5864 17.7599 56.3107 19.3668 56.41 21.3732C56.5144 23.463 54.8585 25.2092 52.7483 25.2856C52.6995 25.2874 52.6508 25.2882 52.6023 25.2882C50.4937 25.2884 48.8179 23.623 48.7974 21.6049Z" fill="#E6790C"/>
</svg>
