<svg width="27" height="15" viewBox="0 0 27 15" fill="none" xmlns="http://www.w3.org/2000/svg">
<path d="M16.1 14.7807H2.58C1.43125 14.7807 0.5 13.8495 0.5 12.7007V2.3007C0.5 1.15195 1.43125 0.220703 2.58 0.220703H16.1C17.2488 0.220703 18.18 1.15195 18.18 2.3007V12.7007C18.18 13.8495 17.2488 14.7807 16.1 14.7807ZM20.26 4.3807V10.6207L24.8828 13.7033C25.2021 13.9163 25.6128 13.9361 25.9511 13.7549C26.2894 13.5736 26.5004 13.2208 26.5 12.8369V2.16446C26.5 1.78067 26.2888 1.42818 25.9505 1.24724C25.6124 1.06633 25.2019 1.08626 24.8828 1.29918L20.26 4.3807Z" fill="white"/>
</svg>
