<svg width="26" height="16" viewBox="0 0 26 16" fill="none" xmlns="http://www.w3.org/2000/svg">
<path d="M15.6 15.2807H2.08C0.931248 15.2807 1.77659e-07 14.3495 0 13.2007V2.8007C0 1.65195 0.931248 0.720703 2.08 0.720703H15.6C16.7488 0.720703 17.68 1.65195 17.68 2.8007V13.2007C17.68 14.3495 16.7488 15.2807 15.6 15.2807ZM19.76 4.8807V11.1207L24.3828 14.2033C24.7021 14.4163 25.1128 14.4361 25.4511 14.2549C25.7894 14.0736 26.0004 13.7208 26 13.3369V2.66446C26 2.28067 25.7888 1.92818 25.4505 1.74724C25.1124 1.56633 24.7019 1.58626 24.3828 1.79918L19.76 4.8807Z" fill="#C2C2C2"/>
</svg>
