<svg width="30" height="31" viewBox="0 0 30 31" fill="none" xmlns="http://www.w3.org/2000/svg">
<g opacity="0.5" clip-path="url(#clip0_69_4101)">
<g clip-path="url(#clip1_69_4101)">
<g clip-path="url(#clip2_69_4101)">
<path d="M21.8728 18.718C21.4966 18.5304 19.6642 17.634 19.3228 17.5102C18.9813 17.3864 18.733 17.3227 18.4818 17.6977C18.2306 18.0728 17.5182 18.9026 17.3023 19.1503C17.0865 19.398 16.8659 19.4127 16.495 19.244C15.393 18.8056 14.3764 18.1772 13.4914 17.3875C12.6766 16.6313 11.9773 15.7594 11.4162 14.7998C11.1985 14.4247 11.3926 14.2183 11.5789 14.0331C11.7488 13.8644 11.9552 13.602 12.1427 13.3791C12.2898 13.1873 12.4144 12.9794 12.5143 12.7593C12.5641 12.6561 12.5873 12.5421 12.5819 12.4277C12.5764 12.3133 12.5424 12.202 12.483 12.1041C12.3892 11.9165 11.6432 10.0789 11.3306 9.34645C11.0305 8.61635 10.722 8.70894 10.4909 8.70894C10.2756 8.69007 10.0273 8.69007 9.77728 8.69007C9.58973 8.69479 9.40501 8.73692 9.23397 8.81399C9.06292 8.89106 8.90899 9.00151 8.78121 9.13886C8.36105 9.53594 8.02799 10.016 7.80312 10.5485C7.57826 11.0811 7.4665 11.6546 7.47494 12.2326C7.47494 14.0514 8.81246 15.8141 8.99882 16.0765C9.18518 16.3201 11.6302 20.0703 15.3739 21.6826C16.2662 22.0577 16.9615 22.2824 17.504 22.4687C18.2654 22.6991 19.0696 22.7508 19.8541 22.6197C20.5718 22.5059 22.0627 21.7186 22.3741 20.8369C22.6235 20.2786 22.7019 19.6588 22.5994 19.0559C22.5068 18.8872 22.262 18.7935 21.887 18.6248M15.0761 27.9273H15.056C12.8338 27.9241 10.6526 27.3287 8.73698 26.2024L8.28701 25.9346L3.59741 27.1542L4.85355 22.5979L4.55455 22.129C2.94857 19.5434 2.34991 16.4573 2.87265 13.4587C3.39538 10.4601 5.00297 7.75864 7.38913 5.86894C9.77529 3.97923 12.7732 3.03339 15.8118 3.21161C18.8504 3.38983 21.7172 4.67965 23.8661 6.83534C25.0221 7.97733 25.939 9.33812 26.5633 10.8383C27.1876 12.3385 27.5069 13.948 27.5025 15.5729C27.487 18.8559 26.1716 21.9991 23.8442 24.3145C21.5167 26.6299 18.3668 27.9289 15.0837 27.9273M25.6501 5.05138C22.8162 2.28801 19.0148 0.741059 15.0566 0.740396C12.4415 0.728201 9.86949 1.40628 7.60029 2.70616C5.3311 4.00604 3.44509 5.88169 2.13273 8.14368C0.820363 10.4057 0.12812 12.9739 0.125905 15.5891C0.123689 18.2042 0.811581 20.7736 2.12011 23.0378L0 30.7404L7.91901 28.6763C10.1116 29.8595 12.5633 30.481 15.0548 30.485H15.0625C19.0137 30.4883 22.8049 28.9248 25.605 26.1372C28.4051 23.3495 29.9856 19.5653 30 15.6142C30.0051 13.6596 29.6215 11.7235 28.8714 9.91854C28.1214 8.11356 27.02 6.47574 25.6312 5.10033" fill="white"/>
</g>
</g>
</g>
<defs>
<clipPath id="clip0_69_4101">
<rect width="30" height="30" fill="white" transform="translate(0 0.740234)"/>
</clipPath>
<clipPath id="clip1_69_4101">
<rect width="30" height="30" fill="white" transform="translate(0 0.740234)"/>
</clipPath>
<clipPath id="clip2_69_4101">
<rect width="30" height="30" fill="white" transform="translate(0 0.740234)"/>
</clipPath>
</defs>
</svg>
