<svg width="186" height="185" viewBox="0 0 186 185" fill="none" xmlns="http://www.w3.org/2000/svg">
<circle cx="93" cy="92.5" r="88.5" fill="#E6790C"/>
<path d="M133.771 109.493C133.771 111.219 133.771 112.816 133.771 114.416C133.771 117.345 131.791 119.29 128.81 119.29C116.079 119.29 103.345 119.29 90.6142 119.29C87.7575 119.29 85.75 117.356 85.75 114.576C85.7428 106.282 85.7428 97.992 85.75 89.6982C85.75 86.9533 87.7433 85.019 90.5538 85.0016C91.7939 84.9947 93.0339 85.0016 94.3236 85.0016V87.9066C93.1049 87.9066 91.9217 87.9031 90.7386 87.9066C89.4062 87.9101 88.7168 88.5676 88.7168 89.8513C88.7168 98.0407 88.7168 106.23 88.7168 114.42C88.7168 115.735 89.3671 116.361 90.7172 116.361C103.395 116.361 116.076 116.361 128.754 116.361C130.153 116.361 130.775 115.745 130.775 114.367C130.775 106.206 130.775 98.0407 130.775 89.8791C130.775 88.4737 130.196 87.9101 128.747 87.9101C120.883 87.9101 113.024 87.9101 105.161 87.9101C104.845 87.9101 104.528 87.9101 104.152 87.9101V85.0052H104.98C112.974 85.0052 120.969 85.0052 128.963 85.0052C131.831 85.0052 133.767 86.929 133.771 89.7609C133.771 91.3124 133.771 92.8675 133.771 94.4888C136.162 92.9997 138.492 91.5491 140.823 90.0983C143.144 88.6546 145.475 87.2247 147.788 85.767C148.633 85.2347 149.493 85.0642 150.403 85.5478C151.313 86.0314 151.622 86.8281 151.622 87.8196C151.611 97.3832 151.611 106.943 151.622 116.507C151.622 117.505 151.295 118.302 150.381 118.761C149.514 119.196 148.662 119.088 147.834 118.556C143.435 115.728 139.026 112.917 134.62 110.099C134.378 109.942 134.151 109.768 133.771 109.5V109.493ZM148.58 115.477V88.825C148.438 88.8772 148.36 88.8911 148.299 88.9294C144.437 91.3264 140.567 93.7164 136.723 96.1377C136.507 96.2734 136.361 96.6805 136.358 96.9623C136.332 100.33 136.354 103.698 136.328 107.069C136.328 107.545 136.493 107.81 136.886 108.06C140.546 110.384 144.195 112.725 147.848 115.06C148.058 115.195 148.281 115.31 148.58 115.481V115.477Z" fill="white"/>
<path d="M81.977 96.3493V99.2543C81.6573 99.2543 81.373 99.2543 81.0923 99.2543C73.1511 99.2543 65.2098 99.2543 57.2686 99.2543C54.2769 99.2543 52.3403 97.3652 52.3368 94.4569C52.3368 92.9852 52.3368 91.5102 52.3368 89.889C51.7648 90.2368 51.3028 90.5117 50.8445 90.797C46.8686 93.2636 42.8926 95.7301 38.9237 98.2071C38.1669 98.6803 37.3852 98.9168 36.5254 98.5481C35.5554 98.1341 35.0721 97.3896 35.0757 96.3459C35.0793 94.5333 35.0757 92.7173 35.0757 90.9049C35.0757 83.1051 35.0757 75.3052 35.0757 67.5055C35.0757 65.7417 36.369 64.6354 37.9751 65.0389C38.373 65.1398 38.7461 65.3729 39.0978 65.5955C43.3296 68.2952 47.5543 71.0053 51.7825 73.7119C51.9104 73.7954 52.049 73.8615 52.3368 74.0216V73.044C52.3368 72.0072 52.3368 70.9705 52.3368 69.9338C52.3368 66.8793 54.3053 64.9485 57.4497 64.945C61.9232 64.938 66.3965 64.945 70.8699 64.945C78.9426 64.945 87.0153 64.945 95.0881 64.945C98.4849 64.945 100.411 66.8236 100.411 70.139C100.411 78.1719 100.411 86.2048 100.411 94.2377C100.411 96.9548 98.7336 99.0317 96.2926 99.2126C94.8216 99.3204 93.3328 99.2334 91.7908 99.2334V96.3563C92.9207 96.3563 94.0541 96.3563 95.184 96.3563C96.8291 96.3529 97.4189 95.7684 97.4189 94.1403C97.4189 86.1318 97.4189 78.1267 97.4189 70.1182C97.4189 68.4831 96.7793 67.8534 95.1271 67.8534C82.6343 67.8534 70.1415 67.8534 57.6452 67.8534C55.9646 67.8534 55.3285 68.4657 55.3285 70.0834C55.3285 78.1441 55.3285 86.2013 55.3285 94.262C55.3285 95.8101 55.8864 96.3598 57.4746 96.3598C65.2844 96.3598 73.0906 96.3598 80.9004 96.3598H81.9734L81.977 96.3493ZM38.071 95.1978C38.2735 95.1039 38.3695 95.0726 38.4583 95.0169C42.2779 92.6443 46.101 90.2821 49.8994 87.8782C50.1587 87.7147 50.3577 87.2624 50.3613 86.9423C50.3932 83.6269 50.3684 80.308 50.3932 76.9926C50.3968 76.4916 50.2405 76.1994 49.8106 75.928C46.0798 73.5658 42.3667 71.1758 38.6466 68.7997C38.4832 68.6953 38.2984 68.6257 38.0745 68.5144V95.1978H38.071Z" fill="white"/>
<path d="M61.6708 91.7735C61.6708 91.7562 61.667 91.742 61.667 91.7285C61.6708 91.1823 61.6604 90.6324 61.6813 90.0862C61.7353 88.7886 62.0762 87.5643 62.7123 86.4195C63.7604 84.53 65.3128 83.2016 67.3627 82.4254C67.4235 82.4014 67.4727 82.4044 67.5335 82.4322C68.6034 82.9297 69.7297 83.1387 70.9096 83.0765C71.8079 83.0277 72.6641 82.815 73.474 82.4359C73.5385 82.4044 73.5917 82.4044 73.6593 82.4291C75.5173 83.1214 76.9669 84.3045 78.0266 85.9497C78.7299 87.0459 79.1488 88.2461 79.2874 89.5363C79.3301 89.9228 79.3339 90.3125 79.3444 90.6984C79.3548 91.0287 79.3444 91.3592 79.3444 91.6904C79.3444 91.718 79.3444 91.742 79.3444 91.7735H61.6708ZM64.7981 76.323H64.7943C64.7479 73.3074 67.1821 70.7637 70.3162 70.6595C73.4817 70.5554 76.0686 72.9657 76.2178 75.9753C76.3737 79.1101 73.8898 81.7293 70.7245 81.8439C70.6512 81.8466 70.5782 81.8479 70.5055 81.8479C67.3425 81.8482 64.8289 79.3501 64.7981 76.323Z" fill="white"/>
<path d="M105.144 112.8C105.144 112.783 105.141 112.768 105.141 112.755C105.144 112.209 105.134 111.659 105.155 111.113C105.209 109.815 105.55 108.591 106.186 107.446C107.234 105.556 108.786 104.228 110.836 103.452C110.897 103.428 110.946 103.431 111.007 103.459C112.077 103.956 113.203 104.165 114.383 104.103C115.282 104.054 116.138 103.841 116.948 103.462C117.012 103.431 117.065 103.431 117.133 103.455C118.991 104.148 120.441 105.331 121.499 106.976C122.203 108.072 122.622 109.273 122.761 110.563C122.804 110.949 122.807 111.339 122.817 111.725C122.828 112.055 122.817 112.386 122.817 112.717C122.817 112.744 122.817 112.768 122.817 112.8H105.144ZM108.272 97.3493H108.268C108.222 94.3338 110.655 91.7901 113.789 91.6859C116.955 91.5818 119.542 93.9921 119.691 97.0017C119.847 100.136 117.363 102.756 114.198 102.87C114.125 102.873 114.052 102.874 113.979 102.874C110.816 102.875 108.302 100.376 108.272 97.3493Z" fill="white"/>
</svg>
