<svg width="72" height="72" viewBox="0 0 72 72" fill="none" xmlns="http://www.w3.org/2000/svg">
<circle cx="36" cy="36" r="36" fill="white" fill-opacity="0.9"/>
<path fill-rule="evenodd" clip-rule="evenodd" d="M40.5 35.25C40.5 37.74 38.49 39.75 36 39.75C33.51 39.75 31.5 37.74 31.5 35.25V26.25C31.5 23.76 33.51 21.75 36 21.75C38.49 21.75 40.5 23.76 40.5 26.25V35.25ZM36 42.75C40.14 42.75 43.5 39.39 43.5 35.25H46.5C46.5 40.545 42.585 44.895 37.5 45.63V50.25H34.5V45.63C29.415 44.895 25.5 40.545 25.5 35.25H28.5C28.5 39.39 31.86 42.75 36 42.75Z" fill="#38ff18"/>
</svg>
