<svg width="240" height="58" viewBox="0 0 240 58" fill="none" xmlns="http://www.w3.org/2000/svg">
<path d="M82.0229 5.95017C83.3311 5.88616 84.6387 6.08546 85.8684 6.53627C87.0981 6.98707 88.2247 7.6802 89.1815 8.57455C90.0364 9.36576 90.7181 10.3255 91.1836 11.3934C91.649 12.4612 91.8882 13.6138 91.8859 14.7787C91.8881 15.951 91.6411 17.1104 91.1612 18.18C90.6813 19.2496 89.9796 20.205 89.1024 20.9828C87.1383 22.7118 84.6152 23.6721 81.9986 23.6866C79.382 23.7012 76.8484 22.7689 74.8652 21.0619C74.0071 20.2723 73.3222 19.3133 72.8536 18.2455C72.3851 17.1777 72.1432 16.0243 72.1432 14.8582C72.1432 13.6921 72.3851 12.5387 72.8536 11.4709C73.3222 10.4031 74.0071 9.44411 74.8652 8.65453C75.818 7.74978 76.942 7.04451 78.1712 6.5801C79.4003 6.1157 80.7099 5.90153 82.0229 5.95017ZM82.0229 20.1074C82.748 20.148 83.4738 20.0421 84.1571 19.7961C84.8403 19.5502 85.4671 19.1691 85.9999 18.6757C86.5035 18.1787 86.8979 17.5822 87.1581 16.9242C87.4182 16.2662 87.5383 15.5612 87.5107 14.8542C87.5383 14.1472 87.4182 13.4422 87.1581 12.7843C86.8979 12.1263 86.5035 11.5297 85.9999 11.0327C84.8969 10.107 83.5029 9.59955 82.0629 9.59955C80.6229 9.59955 79.2289 10.107 78.1259 11.0327C77.6223 11.5297 77.2279 12.1263 76.9678 12.7843C76.7076 13.4422 76.5875 14.1472 76.6151 14.8542C76.5772 15.5555 76.6849 16.257 76.9312 16.9147C77.1776 17.5724 77.5575 18.1719 78.0468 18.6757C78.5821 19.1651 79.2091 19.5436 79.8916 19.7892C80.5741 20.0348 81.2985 20.1435 82.0229 20.1074Z" fill="white"/>
<path d="M112.481 6.1875V23.4473H108.822L99.2774 12.3916V23.4473H94.9831V6.1875H98.9601L108.186 16.7632V6.1875H112.481Z" fill="white"/>
<path d="M129.503 20.2657V23.4473H116.379V6.1875H120.674V20.2657H129.503Z" fill="white"/>
<path d="M136.422 6.1875V23.4473H132.127V6.1875H136.422Z" fill="white"/>
<path d="M157.896 6.1875V23.4473H154.237L144.693 12.3916V23.4473H140.398V6.1875H144.375L153.602 16.7632V6.1875H157.896Z" fill="white"/>
<path d="M174.52 20.2657V23.4473H161.794V6.1875H174.361V9.36911H166.088V12.948H173.962V16.1296H166.088V20.2657H174.52Z" fill="white"/>
<path d="M197.983 20.2657V23.4473H184.859V6.1875H189.154V20.2657H197.983Z" fill="white"/>
<path d="M204.903 6.1875V23.4473H200.608V6.1875H204.903Z" fill="white"/>
<path d="M225.105 6.1875L217.151 23.6854H215.322L206.891 6.1875H211.584L216.116 16.0523L220.411 6.1875H225.105Z" fill="white"/>
<path d="M239.819 20.2657V23.4473H227.093V6.1875H239.66V9.36911H231.389V12.948H239.263V16.1296H231.389V20.2657H239.819Z" fill="white"/>
<path d="M73.1091 48.579V29.4111H74.6199V47.3072H84.0847V48.5799L73.1091 48.579Z" fill="white"/>
<path d="M91.9597 48.579V29.4111H102.299V30.6838H93.4705V38.3987H102.14V39.6714H93.4705V47.4663H102.697V48.7389L91.9597 48.579Z" fill="white"/>
<path d="M118.127 29.1738H118.922L127.751 48.5807H126.16L123.139 41.8994H113.754L110.809 48.5807H109.299L118.127 29.1738ZM114.389 40.6267H122.581L118.445 31.5618L114.389 40.6267Z" fill="white"/>
<path d="M135.704 29.4122H140.476C142.172 29.3311 143.848 29.8057 145.249 30.764C145.814 31.1873 146.269 31.7412 146.573 32.3784C146.878 33.0155 147.024 33.717 146.999 34.4228C147.031 35.1296 146.888 35.8335 146.583 36.4718C146.278 37.1101 145.819 37.6631 145.249 38.0817C144.676 38.5135 144.029 38.837 143.34 39.0361L144.374 39.9906C145.203 40.9026 145.948 41.8874 146.601 42.9332L150.259 48.6601H148.59L144.932 42.9332C144.347 41.8894 143.595 40.949 142.704 40.1497C141.972 39.6786 141.108 39.4555 140.239 39.5134H137.218V48.5783H135.707L135.704 29.4122ZM137.215 38.2407H140.476C141.741 38.3218 142.998 37.9866 144.054 37.2863C144.456 36.9504 144.778 36.5306 145 36.0565C145.221 35.5824 145.336 35.0656 145.336 34.5423C145.336 34.0191 145.221 33.5023 145 33.0282C144.778 32.5541 144.456 32.1343 144.054 31.7984C142.998 31.0981 141.741 30.7629 140.476 30.844H137.215V38.2407Z" fill="white"/>
<path d="M158.929 48.579H157.418V29.4111H158.691L173.246 45.9546V29.4111H174.757V48.7381H173.802L158.929 31.8764V48.579Z" fill="white"/>
<path d="M184.699 29.4111H186.21V48.579H184.699V29.4111Z" fill="white"/>
<path d="M197.663 48.579H196.152V29.4111H197.425L211.98 45.9546V29.4111H213.491V48.7381H212.536L197.663 31.8764V48.579Z" fill="white"/>
<path d="M233.057 48.8185C231.709 48.8453 230.369 48.6063 229.113 48.115C227.858 47.6236 226.712 46.8897 225.74 45.955C224.767 45.071 223.993 43.9892 223.472 42.782C222.951 41.5748 222.694 40.2701 222.718 38.9555C222.689 37.6546 222.928 36.3616 223.42 35.1573C223.913 33.9529 224.649 32.8631 225.582 31.956C226.504 31.0209 227.608 30.2845 228.825 29.7921C230.042 29.2996 231.348 29.0616 232.66 29.0925C233.865 29.0848 235.066 29.2181 236.239 29.4898C237.528 29.8118 238.781 30.2647 239.977 30.8415V32.3523C238.878 31.706 237.702 31.1985 236.477 30.8415C235.285 30.5179 234.054 30.3574 232.819 30.3643C231.691 30.348 230.571 30.5561 229.524 30.9764C228.477 31.3968 227.524 32.0211 226.721 32.8129C225.917 33.6048 225.28 34.5485 224.844 35.5891C224.409 36.6298 224.184 37.7466 224.184 38.8746C224.184 40.0027 224.409 41.1195 224.844 42.1601C225.28 43.2007 225.917 44.1444 226.721 44.9363C227.524 45.7282 228.477 46.3524 229.524 46.7728C230.571 47.1932 231.691 47.4013 232.819 47.385C234.783 47.403 236.722 46.9389 238.465 46.0332V40.2281H234.409V38.9582H239.897V46.9913C237.827 48.2155 235.461 48.8476 233.057 48.8185Z" fill="white"/>
<path d="M28.6439 31.6184H57.1975C57.2775 30.7439 57.3566 29.9485 57.3566 29.0731C57.3566 25.3129 56.616 21.5896 55.177 18.1156C53.738 14.6417 51.6288 11.4852 48.97 8.82643C46.3111 6.16763 43.1545 4.05858 39.6806 2.61971C36.2066 1.18083 32.4832 0.440313 28.723 0.44043L28.6439 0.44043V31.6184Z" fill="white"/>
<path d="M19.3382 40.2087V2.03125C14.8223 3.58592 10.7671 6.24551 7.54166 9.76787C4.31627 13.2902 2.02321 17.5635 0.871264 22.1984C-0.280678 26.8334 -0.254905 31.683 0.946237 36.3055C2.14738 40.928 4.48573 45.1766 7.74838 48.6644C11.011 52.1523 15.0943 54.7687 19.6265 56.2752C24.1586 57.7818 28.9956 58.1308 33.6971 57.2903C38.3986 56.4499 42.8151 54.4468 46.5447 51.4633C50.2742 48.4799 53.1982 44.6109 55.0504 40.2087H19.3382Z" fill="white"/>
</svg>
