<svg width="21" height="19" viewBox="0 0 21 19" fill="none" xmlns="http://www.w3.org/2000/svg">
<path d="M6.1123 4.4L8.9123 0.775C9.1123 0.508333 9.3498 0.3125 9.6248 0.1875C9.8998 0.0625 10.1873 0 10.4873 0C10.7873 0 11.0748 0.0625 11.3498 0.1875C11.6248 0.3125 11.8623 0.508333 12.0623 0.775L14.8623 4.4L19.1123 5.825C19.5456 5.95833 19.8873 6.20417 20.1373 6.5625C20.3873 6.92083 20.5123 7.31667 20.5123 7.75C20.5123 7.95 20.4831 8.15 20.4248 8.35C20.3665 8.55 20.2706 8.74167 20.1373 8.925L17.3873 12.825L17.4873 16.925C17.504 17.5083 17.3123 18 16.9123 18.4C16.5123 18.8 16.0456 19 15.5123 19C15.479 19 15.2956 18.975 14.9623 18.925L10.4873 17.675L6.0123 18.925C5.92897 18.9583 5.8373 18.9792 5.7373 18.9875C5.6373 18.9958 5.54564 19 5.4623 19C4.92897 19 4.4623 18.8 4.0623 18.4C3.6623 18 3.47064 17.5083 3.4873 16.925L3.5873 12.8L0.862305 8.925C0.728971 8.74167 0.633138 8.55 0.574805 8.35C0.516471 8.15 0.487305 7.95 0.487305 7.75C0.487305 7.33333 0.608138 6.94583 0.849805 6.5875C1.09147 6.22917 1.42897 5.975 1.8623 5.825L6.1123 4.4Z" fill="#AEAEAE"/>
</svg>
