<svg width="30" height="26" viewBox="0 0 30 26" fill="none" xmlns="http://www.w3.org/2000/svg">
<g opacity="0.5" clip-path="url(#clip0_69_4122)">
<g clip-path="url(#clip1_69_4122)">
<g clip-path="url(#clip2_69_4122)">
<path d="M29.9952 3.74206C29.4955 4.31924 29.0222 4.93065 28.4967 5.47297C28.0744 5.91199 27.5754 6.27418 27.1358 6.67899C27.0265 6.7799 26.9589 6.91812 26.9465 7.06636C26.9381 13.4225 24.4287 18.5216 19.2637 22.2423C17.0859 23.7681 14.5598 24.7227 11.9172 25.0185C9.42652 25.359 6.89225 25.1772 4.47573 24.4846C2.94104 24.0449 1.47653 23.3895 0.126143 22.538C0.0919253 22.5206 0.074486 22.4864 0.00540447 22.4347C3.22327 22.7767 6.44938 21.867 9.01447 19.8942C7.73568 19.8382 6.50361 19.3971 5.47995 18.6286C4.45628 17.8602 3.68882 16.8003 3.27812 15.5879C4.18038 15.7321 5.10235 15.6941 5.9897 15.4762C4.60672 15.1609 3.37283 14.3828 2.49229 13.2708C1.61175 12.1587 1.13735 10.7793 1.14754 9.3609C1.99277 9.81035 2.92955 10.0608 3.8863 10.093C3.1573 9.59469 2.54286 8.9467 2.08397 8.19224C1.62508 7.43778 1.33225 6.59418 1.22501 5.71766C1.05087 4.38718 1.33019 3.03683 2.01785 1.8846C3.57195 3.78469 5.50634 5.33864 7.69675 6.44664C9.88716 7.55463 12.2851 8.19214 14.7366 8.31822C14.585 7.53479 14.5617 6.73195 14.6675 5.94104C14.8563 4.77986 15.3709 3.69616 16.1515 2.81607C16.9322 1.93598 17.9467 1.29571 19.0771 0.969759C20.1275 0.667154 21.2399 0.651263 22.2986 0.923738C23.3572 1.19621 24.3237 1.74712 25.0976 2.51925C25.1506 2.56101 25.2114 2.59168 25.2765 2.60943C25.3416 2.62718 25.4096 2.63164 25.4765 2.62255C26.6665 2.37926 27.8113 1.95213 28.8699 1.35649C28.9473 1.31323 29.0249 1.27901 29.163 1.20993C28.7136 2.57433 27.8189 3.74823 26.6225 4.54327C27.7596 4.41658 28.8715 4.12041 29.921 3.66458C29.9526 3.69041 29.9681 3.71623 29.9952 3.74206Z" fill="white"/>
</g>
</g>
</g>
<defs>
<clipPath id="clip0_69_4122">
<rect width="30" height="24.44" fill="white" transform="translate(0 0.740234)"/>
</clipPath>
<clipPath id="clip1_69_4122">
<rect width="30" height="24.44" fill="white" transform="translate(0 0.740234)"/>
</clipPath>
<clipPath id="clip2_69_4122">
<rect width="29.9904" height="24.44" fill="white" transform="translate(0.00479603 0.740234)"/>
</clipPath>
</defs>
</svg>
