<svg width="72" height="72" viewBox="0 0 72 72" fill="none" xmlns="http://www.w3.org/2000/svg">
<circle cx="36" cy="36" r="36" fill="white" fill-opacity="0.9"/>
<mask id="mask0_41_4557" style="mask-type:alpha" maskUnits="userSpaceOnUse" x="18" y="18" width="36" height="36">
<rect x="18" y="18" width="36" height="36" fill="#D9D9D9"/>
</mask>
<g mask="url(#mask0_41_4557)">
<path d="M50.9999 44.2492L44.9999 38.2492V40.7617L28.2374 23.9992H41.9999C42.8249 23.9992 43.5311 24.293 44.1186 24.8805C44.7061 25.468 44.9999 26.1742 44.9999 26.9992V33.7492L50.9999 27.7492V44.2492ZM48.8249 53.0242L18.9749 23.1742L21.0749 21.0742L50.9249 50.9242L48.8249 53.0242ZM23.9999 23.9992L44.9999 44.9992C44.9999 45.8242 44.7061 46.5305 44.1186 47.118C43.5311 47.7055 42.8249 47.9992 41.9999 47.9992H23.9999C23.1749 47.9992 22.4686 47.7055 21.8811 47.118C21.2936 46.5305 20.9999 45.8242 20.9999 44.9992V26.9992C20.9999 26.1742 21.2936 25.468 21.8811 24.8805C22.4686 24.293 23.1749 23.9992 23.9999 23.9992Z" fill="#D5001C"/>
</g>
</svg>
