<svg width="72" height="72" viewBox="0 0 72 72" fill="none" xmlns="http://www.w3.org/2000/svg">
<circle cx="36" cy="36" r="36" fill="white" fill-opacity="0.9"/>
<path fill-rule="evenodd" clip-rule="evenodd" d="M45.051 40.9726C46.1254 39.3293 46.75 37.365 46.75 35.25H43.75C43.75 36.5285 43.4296 37.7326 42.8647 38.7863L45.051 40.9726ZM43.7936 42.5436L41.676 40.426C40.3099 41.8576 38.3835 42.75 36.25 42.75C32.11 42.75 28.75 39.39 28.75 35.25H25.75C25.75 40.545 29.665 44.895 34.75 45.63V50.25H37.75V45.63C40.1071 45.2893 42.2127 44.1719 43.7936 42.5436ZM40.5757 36.4973C40.6892 36.1014 40.75 35.683 40.75 35.25V26.25C40.75 23.76 38.74 21.75 36.25 21.75C33.76 21.75 31.75 23.76 31.75 26.25V27.6716L40.5757 36.4973ZM31.75 30.5L39.5563 38.3063C38.7349 39.1947 37.5588 39.75 36.25 39.75C33.76 39.75 31.75 37.74 31.75 35.25V30.5Z" fill="#D5001C"/>
<line x1="25.9571" y1="25.2929" x2="46.9571" y2="46.2929" stroke="#D5001C" stroke-width="2"/>
</svg>
