<svg width="333" height="383" viewBox="0 0 333 383" fill="none" xmlns="http://www.w3.org/2000/svg">
<path d="M143.101 381.882C157.517 337.725 129.409 329.182 97.4303 315.965C22.7151 285.11 -13.2179 205.295 5.49278 124.375C22.2473 51.9975 92.4974 -0.787512 170.7 0.232488C247.498 1.25249 313.283 57.48 329.315 135.042C341.137 192.205 319.407 239.295 285.132 282.092C251.921 323.572 209.779 354.512 162.748 378.907C160.239 380.182 157.517 381.16 154.796 381.797C152.839 382.265 150.756 381.882 143.101 381.882ZM260.766 210.352C261.234 213.795 261.531 216.345 261.957 218.895C265.146 238.02 280.497 234.152 291.979 232.452C297.464 231.645 304.566 222.805 305.799 216.6C308.266 204.403 306.182 190.675 290.235 189.315C268.761 187.487 247.073 188.083 225.428 187.913C205.442 187.743 183.669 192.842 166.022 186.382C149.863 180.475 141.783 184.853 131.832 193.99C126.9 191.78 122.647 188.932 118.055 187.955C99.9817 184.172 81.8664 179.37 63.5809 178.137C51.3339 177.33 33.3037 169.212 29.0512 190.717C27.1802 200.238 28.0306 210.48 28.8811 220.298C30.1143 234.492 42.1487 237.34 50.1007 231.178C60.2215 223.315 77.2312 216.005 67.8759 196.2C87.9048 234.322 88.0324 235.427 108.954 232.835C116.906 231.857 124.05 224.505 130.216 220.85C136.978 224.208 145.78 230.115 155.476 232.835C162.96 234.96 171.805 234.28 179.63 232.792C203.358 228.245 233.55 246.945 249.752 213.795C250.773 211.712 256.131 211.798 260.723 210.48L260.766 210.352ZM136.85 108.607C131.152 105.122 125.114 99.2575 118.14 97.685C108.784 95.6025 98.6635 96.8775 88.9254 96.6225C71.1503 96.155 55.9691 108.777 55.0761 124.8C54.2256 140.78 68.131 153.275 87.4371 153.275C126.007 153.317 164.576 152.34 203.146 153.275C221.133 153.7 238.441 146.39 257.194 152.425C268.42 156.037 280.029 149.407 279.732 134.32C279.434 120.082 273.268 109.245 257.364 108.735C236.825 108.14 216.201 108.267 195.661 108.905C188.56 109.117 181.501 113.197 174.527 113.027C162.535 112.688 150.586 110.392 136.893 108.692L136.85 108.607Z" fill="#1DBFD7"/>
<path d="M260.723 210.352C256.131 211.627 250.773 211.585 249.752 213.667C233.55 246.817 203.358 228.117 179.63 232.665C171.805 234.152 162.96 234.832 155.476 232.707C145.78 229.945 136.978 224.037 130.216 220.722C124.05 224.377 116.906 231.73 108.954 232.707C88.0324 235.3 87.9048 234.195 67.8759 196.072C77.2312 215.92 60.179 223.187 50.1007 231.05C42.1487 237.255 30.1143 234.407 28.8811 220.17C28.0306 210.352 27.1802 200.11 29.0512 190.59C33.3036 169.085 51.3339 177.202 63.5809 178.01C81.8664 179.242 99.9817 184.045 118.055 187.827C122.69 188.805 126.9 191.652 131.832 193.862C141.826 184.725 149.905 180.347 166.022 186.255C183.627 192.715 205.442 187.572 225.428 187.785C247.031 187.997 268.718 187.36 290.235 189.187C306.182 190.547 308.308 204.317 305.799 216.472C304.523 222.72 297.422 231.518 291.979 232.325C280.497 234.025 265.146 237.892 261.957 218.767C261.531 216.26 261.234 213.71 260.766 210.225L260.723 210.352Z" fill="white"/>
<path d="M315 176C315 257.738 248.738 324 167 324C85.2618 324 19 257.738 19 176C19 94.2618 85.2618 28 167 28C248.738 28 315 94.2618 315 176Z" fill="#1DBFD7"/>
<path d="M78.24 142.192V145.712C79.0933 145.797 80.5867 145.84 82.72 145.84C86.7307 145.84 90.3147 145.712 93.472 145.456L95.008 145.328V164.464C90.8693 165.915 84.9813 166.64 77.344 166.64C69.7493 166.64 63.9253 164.699 59.872 160.816C55.8613 156.933 53.856 151.173 53.856 143.536C53.856 135.856 55.84 130.203 59.808 126.576C63.776 122.949 69.6853 121.136 77.536 121.136C80.8213 121.136 83.9147 121.328 86.816 121.712C89.76 122.096 91.8507 122.48 93.088 122.864L95.008 123.44V143.152C91.296 142.512 85.7067 142.192 78.24 142.192ZM101.291 156.592V118.32H120.491V149.552H121.835V165.296C119.574 166.192 116.416 166.64 112.363 166.64C108.352 166.64 105.494 165.808 103.787 164.144C102.123 162.48 101.291 159.963 101.291 156.592ZM148.41 166.576H145.85C139.621 166.576 134.949 165.04 131.834 161.968C128.762 158.896 127.226 153.947 127.226 147.12C127.226 140.293 128.762 135.323 131.834 132.208C134.949 129.093 139.621 127.536 145.85 127.536H148.41C154.639 127.536 159.311 129.093 162.426 132.208C165.541 135.323 167.098 140.293 167.098 147.12C167.098 153.947 165.541 158.896 162.426 161.968C159.354 165.04 154.682 166.576 148.41 166.576ZM145.338 146.608V151.984C145.338 152.539 145.487 152.987 145.786 153.328C146.127 153.669 146.554 153.84 147.066 153.84C147.621 153.84 148.069 153.669 148.41 153.328C148.794 152.987 148.986 152.539 148.986 151.984V146.608C148.986 146.096 148.794 145.669 148.41 145.328C148.069 144.944 147.642 144.752 147.13 144.752C146.618 144.752 146.191 144.944 145.85 145.328C145.509 145.669 145.338 146.096 145.338 146.608ZM191.461 145.712V166H173.349V128.176H189.413L190.053 132.848C190.223 132.379 190.607 131.803 191.205 131.12C191.802 130.437 192.442 129.861 193.125 129.392C195.002 128.155 197.498 127.536 200.613 127.536C204.794 127.536 207.93 128.688 210.021 130.992C212.154 133.296 213.221 136.645 213.221 141.04V166H195.109V145.712C195.109 145.2 194.917 144.773 194.533 144.432C194.191 144.048 193.765 143.856 193.253 143.856C192.741 143.856 192.314 144.048 191.973 144.432C191.631 144.773 191.461 145.2 191.461 145.712ZM219.471 147.184C219.471 140.656 220.943 135.749 223.887 132.464C226.874 129.179 231.738 127.536 238.479 127.536C245.22 127.536 249.914 128.901 252.559 131.632C255.204 134.363 256.527 138.843 256.527 145.072L256.207 150H238.543V152.176C239.61 152.432 241.167 152.56 243.215 152.56C247.567 152.56 251.087 152.368 253.775 151.984L255.119 151.792V163.824C254.778 164.037 254.223 164.315 253.455 164.656C252.73 164.955 250.959 165.36 248.143 165.872C245.327 166.384 242.191 166.64 238.735 166.64C231.908 166.64 226.98 165.019 223.951 161.776C220.964 158.533 219.471 153.669 219.471 147.184ZM237.583 144.304V146.8H241.231V144.304C241.231 143.749 241.039 143.301 240.655 142.96C240.314 142.619 239.866 142.448 239.311 142.448C238.799 142.448 238.372 142.619 238.031 142.96C237.732 143.301 237.583 143.749 237.583 144.304ZM52.896 191.776H88.8V210.4H74.976V212.96H88.8V221.92H74.976V236H52.896V191.776ZM115.864 198.176H133.976V236H117.848L117.208 231.328C117.037 231.797 116.653 232.373 116.056 233.056C115.458 233.739 114.818 234.315 114.136 234.784C112.258 236.021 109.784 236.64 106.712 236.64C102.53 236.64 99.3728 235.488 97.2395 233.184C95.1488 230.88 94.1035 227.552 94.1035 223.2V198.176H112.216V219.232C112.216 219.744 112.386 220.192 112.728 220.576C113.112 220.917 113.56 221.088 114.072 221.088C114.584 221.088 115.01 220.917 115.352 220.576C115.693 220.192 115.864 219.744 115.864 219.232V198.176ZM163.074 216.032V218.912H168.834V234.016C168.621 234.229 168.258 234.485 167.746 234.784C167.277 235.04 166.018 235.424 163.97 235.936C161.922 236.405 159.554 236.64 156.866 236.64C147.095 236.64 142.21 232.373 142.21 223.84V216.032H139.714V200.096C141.549 199.541 143.17 198.517 144.578 197.024C145.986 195.531 146.946 194.187 147.458 192.992L148.226 191.136H164.29V198.176H168.834V216.032H163.074ZM196.859 198.176H214.971V236H198.843L198.203 231.328C198.032 231.797 197.648 232.373 197.051 233.056C196.453 233.739 195.813 234.315 195.131 234.784C193.253 236.021 190.779 236.64 187.707 236.64C183.525 236.64 180.368 235.488 178.235 233.184C176.144 230.88 175.099 227.552 175.099 223.2V198.176H193.211V219.232C193.211 219.744 193.381 220.192 193.723 220.576C194.107 220.917 194.555 221.088 195.067 221.088C195.579 221.088 196.005 220.917 196.347 220.576C196.688 220.192 196.859 219.744 196.859 219.232V198.176ZM240.293 236H221.221V198.176H237.285L237.925 202.848C238.01 202.72 238.117 202.549 238.245 202.336C238.373 202.123 238.736 201.76 239.333 201.248C239.93 200.693 240.613 200.203 241.381 199.776C243.514 198.709 246.202 198.176 249.445 198.176V218.528L240.293 217.632V236ZM291.912 211.808L291.592 219.68L293.192 219.616V234.144C292.424 234.784 291.101 235.36 289.224 235.872C287.346 236.384 285.576 236.64 283.912 236.64C282.248 236.64 280.925 236.491 279.944 236.192C278.962 235.893 278.237 235.573 277.768 235.232C277.298 234.848 276.936 234.421 276.68 233.952C276.296 233.269 276.104 232.693 276.104 232.224C273.757 235.168 270.024 236.64 264.904 236.64C257.864 236.64 254.344 233.653 254.344 227.68C254.344 224.096 255.709 221.557 258.44 220.064C261.17 218.528 265.949 217.611 272.776 217.312C272.776 215.819 271.133 215.072 267.848 215.072C265.629 215.072 263.496 215.349 261.448 215.904C259.442 216.459 257.992 217.013 257.096 217.568L255.688 218.4V201.568C256.072 201.269 256.648 200.907 257.416 200.48C258.184 200.011 259.997 199.413 262.856 198.688C265.714 197.92 268.85 197.536 272.264 197.536C279.09 197.536 284.061 198.688 287.176 200.992C290.333 203.296 291.912 206.901 291.912 211.808ZM273.8 221.984V219.424L270.152 220.448V221.984C270.152 222.539 270.322 222.987 270.664 223.328C271.048 223.669 271.496 223.84 272.008 223.84C272.562 223.84 272.989 223.669 273.288 223.328C273.629 222.987 273.8 222.539 273.8 221.984Z" fill="white"/>
</svg>
