<svg width="50" height="45" viewBox="0 0 50 45" fill="none" xmlns="http://www.w3.org/2000/svg">
<path d="M23.8965 21.7431C24.038 21.8951 24.2093 22.0163 24.3997 22.0992C24.5901 22.182 24.7956 22.2248 25.0032 22.2248C25.2109 22.2248 25.4164 22.182 25.6068 22.0992C25.7972 22.0163 25.9685 21.8951 26.11 21.7431L35.5616 11.8315C36.2198 11.1291 36.7304 10.3019 37.0631 9.39865C37.3958 8.49543 37.5439 7.53463 37.4986 6.57315C37.4533 5.61167 37.2155 4.66905 36.7993 3.80112C36.3832 2.93319 35.7971 2.1576 35.0757 1.52026C33.7647 0.436519 32.0857 -0.0989842 30.3892 0.0255232C28.6928 0.15003 27.11 0.924926 25.9712 2.18847L24.9981 3.20377L24.0353 2.19755C22.8987 0.93106 21.3162 0.153345 19.6192 0.0272216C17.9221 -0.0989022 16.2421 0.436344 14.9308 1.52091C14.2102 2.15874 13.6248 2.93452 13.2092 3.80241C12.7935 4.67031 12.556 5.6127 12.5107 6.57393C12.4654 7.53515 12.6132 8.49571 12.9454 9.39884C13.2776 10.302 13.7875 11.1294 14.4448 11.8321L23.8965 21.7431ZM49.066 28.481C48.5482 28.0457 47.8935 27.8071 47.2171 27.8071C46.5407 27.8071 45.8859 28.0457 45.3681 28.481L37.349 34.8926C36.3645 35.6822 35.1395 36.111 33.8775 36.1077H23.6097C23.2466 36.0998 22.9011 35.9501 22.647 35.6905C22.393 35.431 22.2508 35.0822 22.2508 34.719C22.2508 34.3559 22.393 34.0071 22.647 33.7476C22.9011 33.488 23.2466 33.3382 23.6097 33.3304H30.406C31.0818 33.3443 31.741 33.1209 32.269 32.6991C32.7971 32.2772 33.1605 31.6836 33.2962 31.0215C33.3636 30.6227 33.3432 30.214 33.2363 29.8239C33.1295 29.4338 32.9389 29.0717 32.6777 28.7629C32.4166 28.4541 32.0912 28.2059 31.7243 28.0358C31.3574 27.8656 30.9577 27.7776 30.5533 27.7778H16.6668C14.3248 27.779 12.0544 28.585 10.2358 30.0607L6.19924 33.3304H1.39135C1.0234 33.3314 0.670806 33.478 0.410564 33.7381C0.150322 33.9982 0.0035786 34.3508 0.00238037 34.7187L0.00238037 43.0506C0.00323636 43.4188 0.149828 43.7717 0.410108 44.0321C0.670387 44.2925 1.02318 44.4392 1.39135 44.4402H32.3588C33.6202 44.4406 34.8444 44.0121 35.8302 43.2251L48.9531 32.7225C49.2687 32.4702 49.5255 32.1521 49.7054 31.7903C49.8853 31.4286 49.9841 31.0319 49.9949 30.628C50.0056 30.2241 49.9281 29.8227 49.7676 29.4519C49.6072 29.081 49.3678 28.7497 49.066 28.481Z" fill="#AFAFAF"/>
</svg>
