<svg width="30" height="31" viewBox="0 0 30 31" fill="none" xmlns="http://www.w3.org/2000/svg">
<g opacity="0.5" clip-path="url(#clip0_69_4107)">
<g clip-path="url(#clip1_69_4107)">
<g clip-path="url(#clip2_69_4107)">
<path d="M29.9364 10.9651C29.9474 9.61722 29.7708 8.27432 29.4117 6.97507C28.3629 3.56965 26.0411 1.54883 22.5583 1.04991C20.5501 0.804713 18.527 0.701321 16.5042 0.740498C13.787 0.731903 11.0696 0.789272 8.35194 0.912605C6.40393 0.944504 4.52978 1.66347 3.06027 2.94264C1.59075 4.2218 0.620357 5.97893 0.320242 7.90394C0.141186 8.83677 0.0432837 9.78336 0.0276066 10.7331C-0.00655723 14.0786 0.00178292 17.4234 0.0191871 20.7599C-0.010044 22.3192 0.261327 23.8695 0.818485 25.3262C1.33331 26.7008 2.21753 27.9067 3.37375 28.811C4.52998 29.7153 5.91335 30.2829 7.3715 30.4514C8.78962 30.6751 10.2522 30.6403 11.6967 30.7267C11.8515 30.735 12.0062 30.7524 12.1609 30.7699H17.7934C17.9139 30.7524 18.0428 30.7357 18.1627 30.7267C19.461 30.6667 20.7683 30.6577 22.0581 30.5378C23.8765 30.4076 25.6008 29.6802 26.963 28.4688C28.3253 27.2574 29.2491 25.6298 29.5909 23.8391C29.8601 22.3875 29.9841 20.9127 29.9608 19.4365C29.9608 19.2818 29.9867 19.1271 29.9951 18.9724V12.5219C29.9796 12.0062 29.9538 11.4899 29.9364 10.9651ZM27.5785 20.7947C27.5952 21.9302 27.4238 23.0606 27.0712 24.1401C26.7401 25.2486 26.0769 26.2289 25.1711 26.9485C24.2653 27.6682 23.1605 28.0926 22.0059 28.1644C19.6756 28.3964 17.3189 28.3881 15.2124 28.4828C12.7784 28.3971 10.5945 28.3365 8.40159 28.2334C6.97166 28.207 5.59902 27.6667 4.5347 26.7114C3.47037 25.7561 2.78545 24.4496 2.6053 23.0308C2.43291 21.8232 2.34681 20.6048 2.34752 19.3849C2.32174 16.461 2.33909 13.5371 2.37325 10.6138C2.3564 9.44615 2.54563 8.28463 2.93216 7.18263C3.28181 6.11708 3.94325 5.18105 4.83095 4.49574C5.71865 3.81043 6.7917 3.40741 7.91106 3.33888C10.3792 3.1152 12.8745 3.10682 15.3581 3.08942C17.4047 3.07202 19.4604 3.16677 21.5153 3.25251C22.9486 3.27663 24.3254 3.81546 25.3943 4.77062C26.4632 5.72578 27.1528 7.03353 27.3374 8.45508C27.5136 9.66531 27.5998 10.887 27.5952 12.11C27.632 15.0068 27.6062 17.8965 27.5785 20.7947Z" fill="white"/>
<path d="M14.9216 8.41113C12.9776 8.41096 11.1132 9.18252 9.7377 10.5563C8.36224 11.9301 7.58831 13.7937 7.58609 15.7377C7.58727 17.6806 8.35785 19.5439 9.72928 20.9202C11.1007 22.2965 12.9614 23.0736 14.9043 23.0816C16.8486 23.0804 18.7133 22.3087 20.0898 20.9354C21.4663 19.5622 22.2424 17.6994 22.2482 15.7551C22.2487 13.8102 21.4775 11.9446 20.1039 10.5677C18.7303 9.19083 16.8665 8.41523 14.9216 8.41113ZM14.9133 20.734C13.5935 20.7317 12.3284 20.2065 11.3951 19.2732C10.4619 18.34 9.93663 17.0749 9.93441 15.7551C9.9328 15.0985 10.0609 14.4481 10.3114 13.8412C10.5619 13.2342 10.9299 12.6828 11.3942 12.2185C11.8585 11.7543 12.4099 11.3863 13.0168 11.1358C13.6237 10.8853 14.2741 10.7572 14.9307 10.7588C16.2519 10.7637 17.5172 11.2925 18.449 12.2292C19.3808 13.1658 19.9031 14.4339 19.9012 15.7551C19.897 17.0759 19.3697 18.3413 18.4348 19.2744C17.5 20.2075 16.2342 20.7323 14.9133 20.734Z" fill="white"/>
<path d="M23.074 6.06348C22.8419 6.06398 22.6122 6.11021 22.398 6.19951C22.1838 6.28881 21.9892 6.41944 21.8255 6.58394C21.6618 6.74843 21.5321 6.94357 21.4438 7.1582C21.3555 7.37283 21.3104 7.60276 21.311 7.83484C21.3166 8.29907 21.5047 8.74245 21.8346 9.0691C22.1645 9.39576 22.6097 9.57943 23.074 9.58042C23.3058 9.58043 23.5354 9.53449 23.7493 9.44527C23.9633 9.35605 24.1574 9.2253 24.3206 9.06059C24.4838 8.89588 24.6127 8.70047 24.6999 8.48566C24.7871 8.27084 24.8308 8.04088 24.8286 7.80905C24.8262 7.34527 24.6403 6.90129 24.3115 6.57419C23.9827 6.24709 23.5378 6.06347 23.074 6.06348Z" fill="white"/>
</g>
</g>
</g>
<defs>
<clipPath id="clip0_69_4107">
<rect width="30" height="30.03" fill="white" transform="translate(0 0.740234)"/>
</clipPath>
<clipPath id="clip1_69_4107">
<rect width="30" height="30.03" fill="white" transform="translate(0 0.740234)"/>
</clipPath>
<clipPath id="clip2_69_4107">
<rect width="29.9926" height="30.03" fill="white" transform="translate(0.00369263 0.740234)"/>
</clipPath>
</defs>
</svg>
