<svg width="156" height="73" viewBox="0 0 156 73" fill="none" xmlns="http://www.w3.org/2000/svg">
<path d="M131.593 59.9215C131.593 62.2223 131.593 64.3513 131.593 66.4852C131.593 70.3908 128.954 72.9838 124.979 72.9838C108.005 72.9838 91.0258 72.9838 74.0514 72.9838C70.2424 72.9838 67.5657 70.4048 67.5657 66.6985C67.5562 55.6402 67.5562 44.5864 67.5657 33.5279C67.5657 29.8681 70.2235 27.289 73.9708 27.2659C75.6243 27.2566 77.2776 27.2659 78.9973 27.2659V31.1391C77.3723 31.1391 75.7947 31.1345 74.2172 31.1391C72.4407 31.1438 71.5215 32.0205 71.5215 33.732C71.5215 44.6513 71.5215 55.5706 71.5215 66.4898C71.5215 68.2432 72.3885 69.0781 74.1888 69.0781C91.0922 69.0781 108 69.0781 124.904 69.0781C126.77 69.0781 127.599 68.2571 127.599 66.4202C127.599 55.5381 127.599 44.6513 127.599 33.7691C127.599 31.8952 126.828 31.1438 124.895 31.1438C114.41 31.1438 103.931 31.1438 93.4467 31.1438C93.0251 31.1438 92.6034 31.1438 92.1013 31.1438V27.2706H93.2051C103.864 27.2706 114.524 27.2706 125.183 27.2706C129.007 27.2706 131.588 29.8356 131.593 33.6115C131.593 35.6803 131.593 37.7537 131.593 39.9154C134.781 37.93 137.889 35.9958 140.997 34.0614C144.091 32.1364 147.199 30.2299 150.283 28.2864C151.41 27.5766 152.556 27.3493 153.77 27.9941C154.982 28.6389 155.395 29.7012 155.395 31.0231C155.38 43.7746 155.38 56.5214 155.395 69.2729C155.395 70.6042 154.959 71.6664 153.741 72.2787C152.584 72.8585 151.448 72.7148 150.344 72.005C144.479 68.2339 138.6 64.4859 132.726 60.7286C132.403 60.5199 132.101 60.288 131.593 59.9308V59.9215ZM151.339 67.8999V32.3636C151.149 32.4333 151.046 32.4518 150.965 32.5029C145.815 35.6989 140.656 38.8855 135.53 42.114C135.241 42.2949 135.047 42.8376 135.042 43.2134C135.008 47.7035 135.038 52.1937 135.004 56.6885C135.004 57.324 135.223 57.6764 135.748 58.0104C140.627 61.109 145.493 64.2308 150.363 67.3433C150.643 67.5242 150.941 67.6773 151.339 67.9046V67.8999Z" fill="white"/>
<path d="M62.5351 42.3961V46.2695C62.1088 46.2695 61.7297 46.2695 61.3555 46.2695C50.7672 46.2695 40.1788 46.2695 29.5905 46.2695C25.6016 46.2695 23.0195 43.7507 23.0148 39.8728C23.0148 37.9106 23.0148 35.9439 23.0148 33.7823C22.2521 34.2461 21.6362 34.6126 21.0251 34.993C15.7239 38.2818 10.4225 41.5705 5.13074 44.8732C4.12165 45.504 3.07941 45.8194 1.93293 45.3278C0.639591 44.7758 -0.00471158 43.7831 2.59353e-05 42.3915C0.00476345 39.9748 2.59353e-05 37.5535 2.59353e-05 35.1368C2.59353e-05 24.7371 2.59353e-05 14.3373 2.59353e-05 3.93766C2.59353e-05 1.58589 1.72448 0.110819 3.86583 0.648895C4.39643 0.783414 4.89387 1.0942 5.36288 1.39107C11.0052 4.99061 16.6381 8.60407 22.2758 12.2129C22.4463 12.3243 22.631 12.4123 23.0148 12.6257V11.3223C23.0148 9.93999 23.0148 8.55769 23.0148 7.17539C23.0148 3.1027 25.6395 0.528293 29.8321 0.523654C35.7966 0.514377 41.7611 0.523654 47.7257 0.523654C58.4893 0.523654 69.2528 0.523654 80.0165 0.523654C84.5456 0.523654 87.1133 3.02849 87.1133 7.44907C87.1133 18.1596 87.1133 28.8701 87.1133 39.5805C87.1133 43.2034 84.8772 45.9726 81.6225 46.2138C79.6612 46.3575 77.6762 46.2416 75.6201 46.2416V42.4054C77.1267 42.4054 78.6379 42.4054 80.1444 42.4054C82.3379 42.4008 83.1243 41.6215 83.1243 39.4507C83.1243 28.7727 83.1243 18.0993 83.1243 7.42124C83.1243 5.2411 82.2715 4.40151 80.0686 4.40151C63.4115 4.40151 46.7545 4.40151 30.0927 4.40151C27.8518 4.40151 27.0038 5.2179 27.0038 7.37485C27.0038 18.1225 27.0038 28.8655 27.0038 39.613C27.0038 41.6772 27.7477 42.4101 29.8653 42.4101C40.2783 42.4101 50.6866 42.4101 61.0997 42.4101H62.5304L62.5351 42.3961ZM3.99375 40.8608C4.26378 40.7355 4.3917 40.6938 4.51013 40.6196C9.60295 37.4561 14.7005 34.3065 19.7649 31.1013C20.1107 30.8832 20.3761 30.2801 20.3808 29.8534C20.4234 25.4329 20.3903 21.0077 20.4234 16.5871C20.4282 15.9192 20.2197 15.5295 19.6465 15.1676C14.6721 12.0181 9.72139 8.83136 4.76122 5.66321C4.54329 5.52405 4.29694 5.43127 3.99848 5.28285V40.8608H3.99375Z" fill="white"/>
<path d="M35.4602 36.295C35.4602 36.2719 35.4551 36.253 35.4551 36.235C35.4602 35.5068 35.4463 34.7735 35.4741 34.0452C35.5461 32.3151 36.0007 30.6828 36.8489 29.1563C38.2463 26.637 40.3162 24.8658 43.0493 23.8309C43.1304 23.7989 43.196 23.8029 43.2771 23.8399C44.7036 24.5032 46.2053 24.7819 47.7786 24.699C48.9763 24.634 50.1179 24.3503 51.1978 23.8449C51.2837 23.8029 51.3547 23.8029 51.4448 23.8358C53.9221 24.7589 55.855 26.3364 57.2678 28.53C58.2056 29.9915 58.7642 31.5919 58.949 33.3121C59.0059 33.8275 59.011 34.347 59.0249 34.8615C59.0388 35.3019 59.0249 35.7426 59.0249 36.1841C59.0249 36.221 59.0249 36.253 59.0249 36.295H35.4602ZM39.6299 15.6943H39.6248C39.563 11.6735 42.8086 8.28192 46.9873 8.143C51.208 8.00421 54.6572 11.218 54.8562 15.2308C55.064 19.4105 51.7522 22.9028 47.5317 23.0556C47.4341 23.0591 47.3367 23.0609 47.2397 23.0609C43.0225 23.0612 39.6709 19.7304 39.6299 15.6943Z" fill="#E6790C"/>
<path d="M93.425 64.3301C93.425 64.3071 93.4199 64.2881 93.4199 64.2702C93.425 63.5419 93.4111 62.8087 93.439 62.0804C93.511 60.3503 93.9656 58.718 94.8137 57.1915C96.2112 54.6722 98.281 52.9009 101.014 51.866C101.095 51.834 101.161 51.8381 101.242 51.8759C102.668 52.5384 104.17 52.8171 105.743 52.7342C106.941 52.6691 108.083 52.3854 109.163 51.8801C109.249 51.8381 109.32 51.8381 109.41 51.8709C111.887 52.794 113.82 54.3715 115.231 56.5651C116.17 58.0267 116.729 59.627 116.914 61.3472C116.971 61.8626 116.975 62.3821 116.989 62.8967C117.004 63.3371 116.989 63.7778 116.989 64.2193C116.989 64.2562 116.989 64.2881 116.989 64.3301H93.425ZM97.5947 43.7294H97.5896C97.5278 39.7087 100.772 36.3171 104.951 36.1782C109.173 36.0394 112.621 39.2531 112.82 43.2659C113.029 47.4456 109.717 50.9379 105.497 51.0908C105.399 51.0943 105.302 51.096 105.205 51.096C100.987 51.0964 97.6357 47.7656 97.5947 43.7294Z" fill="#E6790C"/>
</svg>
