<svg width="49" height="23" viewBox="0 0 49 23" fill="none" xmlns="http://www.w3.org/2000/svg">
<path d="M41.148 18.481C41.148 19.1917 41.148 19.8493 41.148 20.5084C41.148 21.7148 40.3327 22.5158 39.105 22.5158C33.8618 22.5158 28.617 22.5158 23.3737 22.5158C22.1972 22.5158 21.3704 21.7192 21.3704 20.5743C21.3674 17.1585 21.3674 13.744 21.3704 10.3282C21.3704 9.19768 22.1913 8.40102 23.3489 8.39385C23.8596 8.39098 24.3703 8.39385 24.9015 8.39385V9.59026C24.3996 9.59026 23.9122 9.58885 23.425 9.59026C22.8762 9.59172 22.5923 9.86252 22.5923 10.3912C22.5923 13.7641 22.5923 17.137 22.5923 20.5098C22.5923 21.0514 22.8601 21.3093 23.4162 21.3093C28.6375 21.3093 33.8603 21.3093 39.0818 21.3093C39.6581 21.3093 39.9141 21.0557 39.9141 20.4884C39.9141 17.1269 39.9141 13.7641 39.9141 10.4027C39.9141 9.82383 39.676 9.59172 39.0789 9.59172C35.8403 9.59172 32.6033 9.59172 29.3648 9.59172C29.2346 9.59172 29.1043 9.59172 28.9492 9.59172V8.39531H29.2902C32.5828 8.39531 35.8754 8.39531 39.1679 8.39531C40.349 8.39531 41.1465 9.18764 41.148 10.354C41.148 10.993 41.148 11.6335 41.148 12.3012C42.1327 11.6879 43.0927 11.0905 44.0527 10.493C45.0084 9.89834 45.9684 9.30943 46.9211 8.70909C47.2691 8.48986 47.6233 8.41964 47.9982 8.6188C48.3727 8.81797 48.5 9.14612 48.5 9.55445C48.4957 13.4933 48.4957 17.4307 48.5 21.3695C48.5 21.7808 48.3655 22.1089 47.9891 22.298C47.632 22.4771 47.2811 22.4327 46.94 22.2135C45.1284 21.0486 43.3123 19.8909 41.4978 18.7303C41.3981 18.6658 41.3047 18.5942 41.148 18.4838V18.481ZM47.2473 20.9454V9.96852C47.1887 9.99005 47.1567 9.99576 47.1316 10.0115C45.5411 10.9987 43.9473 11.9831 42.364 12.9803C42.2749 13.0362 42.2149 13.2039 42.2134 13.3199C42.2029 14.7069 42.212 16.0939 42.2014 17.4823C42.2014 17.6786 42.2691 17.7875 42.4312 17.8906C43.9385 18.8478 45.4415 19.8121 46.9458 20.7735C47.0324 20.8294 47.1244 20.8766 47.2473 20.9469V20.9454Z" fill="#212529"/>
<path d="M19.8166 13.0701V14.2666C19.6849 14.2666 19.5679 14.2666 19.4523 14.2666C16.1816 14.2666 12.9109 14.2666 9.64029 14.2666C8.40813 14.2666 7.61056 13.4885 7.60911 12.2907C7.60911 11.6846 7.60911 11.0771 7.60911 10.4094C7.37351 10.5527 7.18325 10.6659 6.99449 10.7834C5.35698 11.7993 3.71945 12.8151 2.08485 13.8353C1.77315 14.0301 1.45121 14.1276 1.09707 13.9757C0.697565 13.8052 0.498545 13.4986 0.500008 13.0687C0.501471 12.3222 0.500008 11.5743 0.500008 10.8278C0.500008 7.61541 0.500008 4.40298 0.500008 1.1906C0.500008 0.464155 1.03268 0.00851738 1.69413 0.174725C1.85802 0.216277 2.01168 0.312276 2.15655 0.403977C3.89944 1.51585 5.63939 2.63202 7.38082 3.74676C7.43351 3.78116 7.49056 3.80836 7.60911 3.87429V3.47166C7.60911 3.04468 7.60911 2.61769 7.60911 2.19071C7.60911 0.932688 8.41984 0.137472 9.71491 0.136039C11.5573 0.133174 13.3997 0.136039 15.2421 0.136039C18.5669 0.136039 21.8917 0.136039 25.2165 0.136039C26.6155 0.136039 27.4086 0.909764 27.4086 2.27525C27.4086 5.58364 27.4086 8.89203 27.4086 12.2004C27.4086 13.3195 26.7179 14.1749 25.7126 14.2494C25.1068 14.2938 24.4936 14.258 23.8585 14.258V13.073C24.3239 13.073 24.7907 13.073 25.256 13.073C25.9336 13.0716 26.1765 12.8309 26.1765 12.1603C26.1765 8.86196 26.1765 5.56502 26.1765 2.26665C26.1765 1.59322 25.9131 1.33388 25.2326 1.33388C20.0874 1.33388 14.9421 1.33388 9.79542 1.33388C9.10323 1.33388 8.84126 1.58606 8.84126 2.25232C8.84126 5.57219 8.84126 8.89061 8.84126 12.2105C8.84126 12.8481 9.07105 13.0745 9.72516 13.0745C12.9417 13.0745 16.1567 13.0745 19.3732 13.0745H19.8152L19.8166 13.0701ZM1.73364 12.5959C1.81705 12.5572 1.85656 12.5443 1.89315 12.5214C3.46628 11.5442 5.04087 10.5713 6.60525 9.58124C6.71205 9.51389 6.79401 9.3276 6.79547 9.19578C6.80863 7.83032 6.79841 6.4634 6.80863 5.09793C6.81012 4.8916 6.74572 4.77124 6.56867 4.65945C5.03211 3.68658 3.50287 2.70223 1.97071 1.72361C1.90339 1.68062 1.82729 1.65197 1.7351 1.60612V12.5959H1.73364Z" fill="#212529"/>
<path d="M11.4557 11.1831C11.4557 11.176 11.4541 11.1701 11.4541 11.1646C11.4557 10.9396 11.4514 10.7131 11.46 10.4882C11.4822 9.95377 11.6226 9.44955 11.8846 8.97803C12.3163 8.19984 12.9557 7.65272 13.7999 7.33304C13.8249 7.32316 13.8452 7.32441 13.8703 7.33583C14.3109 7.54073 14.7748 7.62682 15.2607 7.60121C15.6307 7.58112 15.9833 7.49349 16.3169 7.33738C16.3434 7.32441 16.3654 7.32441 16.3932 7.33455C17.1584 7.61969 17.7555 8.10697 18.1919 8.78456C18.4816 9.23602 18.6541 9.73036 18.7112 10.2617C18.7288 10.4209 18.7303 10.5814 18.7346 10.7403C18.7389 10.8764 18.7346 11.0125 18.7346 11.1489C18.7346 11.1603 18.7346 11.1701 18.7346 11.1831H11.4557ZM12.7437 4.81971H12.7421C12.723 3.57773 13.7255 2.53009 15.0163 2.48718C16.3201 2.44431 17.3855 3.43701 17.447 4.67654C17.5111 5.96761 16.4882 7.04636 15.1845 7.09357C15.1543 7.09466 15.1242 7.09519 15.0943 7.09519C13.7916 7.0953 12.7563 6.06644 12.7437 4.81971Z" fill="#212529"/>
<path d="M29.3571 19.8403C29.3571 19.8332 29.3555 19.8274 29.3555 19.8218C29.3571 19.5969 29.3528 19.3704 29.3614 19.1454C29.3836 18.611 29.524 18.1068 29.786 17.6353C30.2177 16.8571 30.857 16.3099 31.7013 15.9903C31.7263 15.9804 31.7466 15.9816 31.7716 15.9933C32.2123 16.198 32.6761 16.284 33.1621 16.2584C33.5321 16.2383 33.8847 16.1507 34.2183 15.9946C34.2448 15.9816 34.2668 15.9816 34.2946 15.9918C35.0598 16.2769 35.6568 16.7642 36.0929 17.4418C36.3827 17.8932 36.5555 18.3876 36.6126 18.9189C36.6301 19.0781 36.6314 19.2386 36.6357 19.3976C36.6403 19.5336 36.6357 19.6697 36.6357 19.8061C36.6357 19.8175 36.6357 19.8274 36.6357 19.8403H29.3571ZM30.645 13.4769H30.6435C30.6244 12.235 31.6266 11.1873 32.9173 11.1444C34.2214 11.1015 35.2866 12.0942 35.348 13.3338C35.4125 14.6248 34.3895 15.7036 33.0859 15.7508C33.0557 15.7519 33.0256 15.7524 32.9957 15.7524C31.693 15.7525 30.6577 14.7237 30.645 13.4769Z" fill="#212529"/>
</svg>
