<svg width="20" height="26" viewBox="0 0 20 26" fill="none" xmlns="http://www.w3.org/2000/svg">
<path fill-rule="evenodd" clip-rule="evenodd" d="M13.9993 12.334C13.9993 14.5473 12.2127 16.334 9.99935 16.334C7.78602 16.334 5.99935 14.5473 5.99935 12.334V4.33398C5.99935 2.12065 7.78602 0.333984 9.99935 0.333984C12.2127 0.333984 13.9993 2.12065 13.9993 4.33398V12.334ZM9.99935 19.0007C13.6793 19.0007 16.666 16.014 16.666 12.334H19.3327C19.3327 17.0406 15.8527 20.9073 11.3327 21.5606V25.6673H8.66602V21.5606C4.14602 20.9073 0.666016 17.0406 0.666016 12.334H3.33268C3.33268 16.014 6.31935 19.0007 9.99935 19.0007Z" fill="#C2C2C2"/>
</svg>
