<?xml version="1.0" encoding="UTF-8" standalone="no"?>
<svg
   xmlns:dc="http://purl.org/dc/elements/1.1/"
   xmlns:cc="http://creativecommons.org/ns#"
   xmlns:rdf="http://www.w3.org/1999/02/22-rdf-syntax-ns#"
   xmlns:svg="http://www.w3.org/2000/svg"
   xmlns="http://www.w3.org/2000/svg"
   version="1.1"
   id="svg2"
   xml:space="preserve"
   width="1056"
   height="816"
   viewBox="0 0 1056 816"><metadata
     id="metadata8"><rdf:RDF><cc:Work
         rdf:about=""><dc:format>image/svg+xml</dc:format><dc:type
           rdf:resource="http://purl.org/dc/dcmitype/StillImage" /></cc:Work></rdf:RDF></metadata><defs
     id="defs6"><clipPath
       clipPathUnits="userSpaceOnUse"
       id="clipPath18"><path
         d="M 0,0 H 3300 V 2550 H 0 Z"
         clip-rule="evenodd"
         id="path16" /></clipPath><clipPath
       clipPathUnits="userSpaceOnUse"
       id="clipPath30"><path
         d="M 0,0 H 3300 V 2581.25 H 0 Z"
         id="path28" /></clipPath><clipPath
       clipPathUnits="userSpaceOnUse"
       id="clipPath36"><path
         d="M 0,0 H 3300 V 2550 H 0 Z"
         id="path34" /></clipPath><clipPath
       clipPathUnits="userSpaceOnUse"
       id="clipPath42"><path
         d="M 0,0 H 3300 V 2550 H 0 Z"
         id="path40" /></clipPath><clipPath
       clipPathUnits="userSpaceOnUse"
       id="clipPath48"><path
         d="M 1043.1587,352.66107 H 2127.9902 V 1433.3364 H 1043.1587 Z"
         id="path46" /></clipPath><clipPath
       clipPathUnits="userSpaceOnUse"
       id="clipPath54"><path
         d="m 1446.2534,355.70844 v 15.625 c 0,232.33355 -0.042,464.62542 0.042,696.95896 0,17.3333 -2.25,15.3751 15.8752,15.3751 l 664.9172,0.042 c -61.5417,165.8752 -258.542,346.1671 -529.3755,334.292 -268.2086,-11.7084 -482.5005,-217.7918 -516.3755,-474.0837 -37.3333,-282.54193 145.4585,-516.87549 364.917,-588.20886"
         id="path52" /></clipPath><clipPath
       clipPathUnits="userSpaceOnUse"
       id="clipPath66"><path
         d="M 0,0 H 3300 V 2581.25 H 0 Z"
         id="path64" /></clipPath><clipPath
       clipPathUnits="userSpaceOnUse"
       id="clipPath72"><path
         d="M 0,0 H 3300 V 2550 H 0 Z"
         id="path70" /></clipPath><clipPath
       clipPathUnits="userSpaceOnUse"
       id="clipPath78"><path
         d="M 0,0 H 3300 V 2550 H 0 Z"
         id="path76" /></clipPath><clipPath
       clipPathUnits="userSpaceOnUse"
       id="clipPath84"><path
         d="m 1579.3398,340.19174 h 548.6504 v 602.6842 h -548.6504 z"
         id="path82" /></clipPath><clipPath
       clipPathUnits="userSpaceOnUse"
       id="clipPath90"><path
         d="m 1582.8785,345.79175 c 0.4167,95.08343 0.25,201.25018 0.25,296.37524 l -0.2916,284.04193 c -0.083,11.58332 3.4166,13.91669 14.25,13.83338 l 161.8335,-0.25 c 119.75,0 239.4585,0 359.2085,0 6.0835,0 8.875,1.79168 8.9168,-8.00006 0,-3.33326 -0.625,-47.58332 -0.625,-134.20838 l -0.2918,0.0416 -402.2502,-0.0416 V 344.25009"
         id="path88" /></clipPath><clipPath
       clipPathUnits="userSpaceOnUse"
       id="clipPath102"><path
         d="M 0,0 H 3300 V 2581.25 H 0 Z"
         id="path100" /></clipPath><clipPath
       clipPathUnits="userSpaceOnUse"
       id="clipPath108"><path
         d="M 0,0 H 3300 V 2550 H 0 Z"
         id="path106" /></clipPath><clipPath
       clipPathUnits="userSpaceOnUse"
       id="clipPath114"><path
         d="M 0,0 H 3300 V 2550 H 0 Z"
         id="path112" /></clipPath><clipPath
       clipPathUnits="userSpaceOnUse"
       id="clipPath120"><path
         d="m 1837.0393,269.53223 h 390.7058 v 415.64429 h -390.7058 z"
         id="path118" /></clipPath><clipPath
       clipPathUnits="userSpaceOnUse"
       id="clipPath126"><path
         d="m 1838.1704,269.75003 c 0.2918,68.37503 0.1668,132.45844 0.1668,200.79184 l -0.2084,204.2085 c -0.042,8.33337 2.4584,10 10.25,9.91668 l 116.3334,-0.16668 c 86.0835,0 172.1667,0 258.2502,0 0,0 1,-21.33338 0.2915,-51.625 0,0 0.042,-27.08338 -0.042,-32.04175 -0.2915,-24.04163 -0.2915,-29.58338 -0.2915,-29.58338 l -267.042,0.83338 -1,-302.50028"
         id="path124" /></clipPath><clipPath
       clipPathUnits="userSpaceOnUse"
       id="clipPath138"><path
         d="M 0,0 H 3300 V 2581.25 H 0 Z"
         id="path136" /></clipPath><clipPath
       clipPathUnits="userSpaceOnUse"
       id="clipPath144"><path
         d="M 0,0 H 3300 V 2550 H 0 Z"
         id="path142" /></clipPath><clipPath
       clipPathUnits="userSpaceOnUse"
       id="clipPath150"><path
         d="M 0,0 H 3300 V 2550 H 0 Z"
         id="path148" /></clipPath><clipPath
       clipPathUnits="userSpaceOnUse"
       id="clipPath156"><path
         d="m 1596.9634,1569.8296 h 256.2954 v 372.4828 h -256.2954 z"
         id="path154" /></clipPath><clipPath
       clipPathUnits="userSpaceOnUse"
       id="clipPath162"><path
         d="m 1710.9907,1570.0383 h -112.5473 v 371.6175 h 253.5437 v -98.0343 h -140.9964 z"
         id="path160" /></clipPath><clipPath
       clipPathUnits="userSpaceOnUse"
       id="clipPath174"><path
         d="M 0,0 H 3300 V 2581.25 H 0 Z"
         id="path172" /></clipPath><clipPath
       clipPathUnits="userSpaceOnUse"
       id="clipPath180"><path
         d="M 0,0 H 3300 V 2550 H 0 Z"
         id="path178" /></clipPath><clipPath
       clipPathUnits="userSpaceOnUse"
       id="clipPath186"><path
         d="M 0,0 H 3300 V 2550 H 0 Z"
         id="path184" /></clipPath><clipPath
       clipPathUnits="userSpaceOnUse"
       id="clipPath192"><path
         d="m 1895.9749,1569.8296 h 256.2954 v 372.4828 h -256.2954 z"
         id="path190" /></clipPath><clipPath
       clipPathUnits="userSpaceOnUse"
       id="clipPath198"><path
         d="m 2009.611,1843.6215 v -273.5832 h -112.4992 v 371.6175 h 253.4956 v -98.0343 z"
         id="path196" /></clipPath><clipPath
       clipPathUnits="userSpaceOnUse"
       id="clipPath210"><path
         d="M 0,0 H 3300 V 2581.25 H 0 Z"
         id="path208" /></clipPath><clipPath
       clipPathUnits="userSpaceOnUse"
       id="clipPath216"><path
         d="M 0,0 H 3300 V 2550 H 0 Z"
         id="path214" /></clipPath><clipPath
       clipPathUnits="userSpaceOnUse"
       id="clipPath222"><path
         d="M 0,0 H 3300 V 2550 H 0 Z"
         id="path220" /></clipPath><clipPath
       clipPathUnits="userSpaceOnUse"
       id="clipPath228"><path
         d="m 1149.3005,1557.8691 h 413.4902 v 389.5693 h -413.4902 z"
         id="path226" /></clipPath><clipPath
       clipPathUnits="userSpaceOnUse"
       id="clipPath234"><path
         d="m 1355.3759,1658.4135 c -54.7359,0 -90.2973,41.7606 -90.2973,94.2379 0,52.4771 35.5614,94.2379 90.2973,94.2379 54.7359,0 90.2973,-41.7608 90.2973,-94.2379 0,-52.4773 -35.5614,-94.2379 -90.2973,-94.2379 m 0,-100.4372 c 116.2476,0 205.9682,79.0042 205.9682,194.6751 0,115.6709 -89.7206,194.675 -205.9682,194.675 -116.2476,0 -205.9682,-79.0041 -205.9682,-194.675 0,-115.6709 89.7206,-194.6751 205.9682,-194.6751"
         id="path232" /></clipPath><clipPath
       clipPathUnits="userSpaceOnUse"
       id="clipPath246"><path
         d="M 0,0 H 3300 V 2550 H 0 Z"
         clip-rule="evenodd"
         id="path244" /></clipPath></defs><g
     id="g10"
     transform="matrix(0.31999998,0,0,0.31999998,0,4.7330666e-5)"><g
       id="g12"><g
         id="g14"
         clip-path="url(#clipPath18)"><g
           id="g20"
           transform="scale(3.125)"><path
             d="M 0,0 H 1056 V 816 H 0 Z"
             style="fill:#ffffff;fill-opacity:1;fill-rule:nonzero;stroke:none"
             id="path22" /></g></g></g><g
       id="g24"><g
         id="g26"
         clip-path="url(#clipPath30)"><g
           id="g32"
           clip-path="url(#clipPath36)"><g
             id="g38"
             clip-path="url(#clipPath42)"><g
               id="g44"
               clip-path="url(#clipPath48)"><g
                 id="g50"
                 clip-path="url(#clipPath54)"><g
                   id="g56"
                   transform="matrix(4.1564431,0,0,4.1564431,1055.6281,248.75)"><path
                     d="M 0,0 H 286 V 286 H 0 Z"
                     style="fill:#cb2028;fill-opacity:1;fill-rule:nonzero;stroke:none"
                     id="path58" /></g></g></g></g></g></g></g><g
       id="g60"><g
         id="g62"
         clip-path="url(#clipPath66)"><g
           id="g68"
           clip-path="url(#clipPath72)"><g
             id="g74"
             clip-path="url(#clipPath78)"><g
               id="g80"
               clip-path="url(#clipPath84)"><g
                 id="g86"
                 clip-path="url(#clipPath90)"><g
                   id="g92"
                   transform="matrix(4.1564431,0,0,4.1564431,1055.6281,248.75)"><path
                     d="M 0,0 H 286 V 286 H 0 Z"
                     style="fill:#cb2028;fill-opacity:1;fill-rule:nonzero;stroke:none"
                     id="path94" /></g></g></g></g></g></g></g><g
       id="g96"><g
         id="g98"
         clip-path="url(#clipPath102)"><g
           id="g104"
           clip-path="url(#clipPath108)"><g
             id="g110"
             clip-path="url(#clipPath114)"><g
               id="g116"
               clip-path="url(#clipPath120)"><g
                 id="g122"
                 clip-path="url(#clipPath126)"><g
                   id="g128"
                   transform="matrix(4.1564431,0,0,4.1564431,1055.6281,248.75)"><path
                     d="M 0,0 H 286 V 286 H 0 Z"
                     style="fill:#cb2028;fill-opacity:1;fill-rule:nonzero;stroke:none"
                     id="path130" /></g></g></g></g></g></g></g><g
       id="g132"><g
         id="g134"
         clip-path="url(#clipPath138)"><g
           id="g140"
           clip-path="url(#clipPath144)"><g
             id="g146"
             clip-path="url(#clipPath150)"><g
               id="g152"
               clip-path="url(#clipPath156)"><g
                 id="g158"
                 clip-path="url(#clipPath162)"><g
                   id="g164"
                   transform="matrix(1.7086366,0,0,1.7086366,1125.3796,1533.9482)"><path
                     d="M 0,0 H 614 V 256 H 0 Z"
                     style="fill:#202e61;fill-opacity:1;fill-rule:nonzero;stroke:none"
                     id="path166" /></g></g></g></g></g></g></g><g
       id="g168"><g
         id="g170"
         clip-path="url(#clipPath174)"><g
           id="g176"
           clip-path="url(#clipPath180)"><g
             id="g182"
             clip-path="url(#clipPath186)"><g
               id="g188"
               clip-path="url(#clipPath192)"><g
                 id="g194"
                 clip-path="url(#clipPath198)"><g
                   id="g200"
                   transform="matrix(1.7086366,0,0,1.7086366,1125.3796,1533.9482)"><path
                     d="M 0,0 H 614 V 256 H 0 Z"
                     style="fill:#202e61;fill-opacity:1;fill-rule:nonzero;stroke:none"
                     id="path202" /></g></g></g></g></g></g></g><g
       id="g204"><g
         id="g206"
         clip-path="url(#clipPath210)"><g
           id="g212"
           clip-path="url(#clipPath216)"><g
             id="g218"
             clip-path="url(#clipPath222)"><g
               id="g224"
               clip-path="url(#clipPath228)"><g
                 id="g230"
                 clip-path="url(#clipPath234)"><g
                   id="g236"
                   transform="matrix(1.7086366,0,0,1.7086366,1125.3796,1533.9482)"><path
                     d="M 0,0 H 614 V 256 H 0 Z"
                     style="fill:#202e61;fill-opacity:1;fill-rule:nonzero;stroke:none"
                     id="path238" /></g></g></g></g></g></g></g><g
       id="g240"><g
         id="g242"
         clip-path="url(#clipPath246)"><g
           id="g248"
           transform="matrix(8.6586037,0,0,8.6586037,1125.3796,2012.5645)"><text
             transform="translate(0,23)"
             style="font-variant:normal;font-weight:normal;font-size:1e-32px;font-family:Arial;-inkscape-font-specification:Arial;writing-mode:lr-tb;fill:#202e61;fill-opacity:1;fill-rule:nonzero;stroke:none"
             id="text252"><tspan
               x="0 14.063965 26.399933 31.799911 37.19989 42.599869 53.759842 59.951828 66.743805 80.471771 88.391754 94.58374 110.37569 115.77567"
               y="0"
               id="tspan250">Skills for All</tspan></text></g></g></g></g></svg>
