<svg width="72" height="72" viewBox="0 0 72 72" fill="none" xmlns="http://www.w3.org/2000/svg">
<circle cx="36" cy="36" r="36" fill="white" fill-opacity="0.9"/>
<mask id="mask0_41_4605" style="mask-type:alpha" maskUnits="userSpaceOnUse" x="18" y="18" width="36" height="36">
<rect x="18" y="18" width="36" height="36" fill="#D9D9D9"/>
</mask>
<g mask="url(#mask0_41_4605)">
<path d="M24 48C23.175 48 22.4688 47.7063 21.8813 47.1188C21.2938 46.5312 21 45.825 21 45V27C21 26.175 21.2938 25.4688 21.8813 24.8813C22.4688 24.2938 23.175 24 24 24H42C42.825 24 43.5312 24.2938 44.1188 24.8813C44.7063 25.4688 45 26.175 45 27V33.75L51 27.75V44.25L45 38.25V45C45 45.825 44.7063 46.5312 44.1188 47.1188C43.5312 47.7063 42.825 48 42 48H24Z" fill="#D5001C"/>
</g>
</svg>
