<svg width="30" height="22" viewBox="0 0 30 22" fill="none" xmlns="http://www.w3.org/2000/svg">
<g opacity="0.5" clip-path="url(#clip0_69_4129)">
<g clip-path="url(#clip1_69_4129)">
<g clip-path="url(#clip2_69_4129)">
<path d="M29.5188 4.30823C29.4243 3.48172 29.0614 2.70898 28.4857 2.10848C27.91 1.50798 27.1533 1.11285 26.3315 0.983665C25.6149 0.847433 24.8895 0.761643 24.1609 0.726925C21.0841 0.589632 18.0067 0.479797 14.9204 0.360352V0.451651C14.2243 0.451651 13.5282 0.442727 12.8232 0.451651C9.87762 0.445687 6.93387 0.595546 4.00417 0.900601C3.21371 0.965222 2.46288 1.27408 1.85577 1.78439C1.24866 2.2947 0.815325 2.98119 0.615738 3.74876C0.481945 4.26028 0.383999 4.78051 0.322615 5.30566C0.0436497 7.6451 -0.057282 10.0023 0.0206093 12.3571C0.0355837 14.1471 0.197847 15.933 0.505879 17.6964C0.626628 18.5087 1.00818 19.2597 1.59298 19.8362C2.17779 20.4127 2.93417 20.7835 3.74808 20.8926C4.74297 21.0476 5.74555 21.1484 6.75138 21.1946C9.89265 21.2955 13.0244 21.3958 16.156 21.4054C19.2714 21.4512 22.3868 21.3229 25.4879 21.021C26.2899 20.9867 27.0718 20.7605 27.7682 20.3613C28.2958 20.0182 28.7339 19.5543 29.0462 19.0079C29.3584 18.4616 29.5356 17.8486 29.5633 17.22C29.7377 15.4523 29.9114 13.6758 29.9663 11.8992C30.0878 9.36015 29.9378 6.8154 29.5188 4.30823ZM12.0289 15.4166V6.44176C14.6375 7.94376 17.2029 9.42721 19.8224 10.9292C17.2015 12.4401 14.6279 13.9147 12.0289 15.4166Z" fill="white"/>
<path d="M19.821 10.9288C17.2022 12.4391 14.6286 13.9143 12.0276 15.4163V6.44141C14.6375 7.9434 17.2015 9.42685 19.821 10.9288Z" fill="#484848"/>
</g>
</g>
</g>
<defs>
<clipPath id="clip0_69_4129">
<rect width="30" height="21.05" fill="white" transform="translate(0 0.360352)"/>
</clipPath>
<clipPath id="clip1_69_4129">
<rect width="30" height="21.05" fill="white" transform="translate(0 0.360352)"/>
</clipPath>
<clipPath id="clip2_69_4129">
<rect width="30" height="21.0478" fill="white" transform="translate(0 0.361328)"/>
</clipPath>
</defs>
</svg>
